<mxfile host="65bd71144e">
    <diagram id="Pv5jin8y6S8mmD8lyfdv" name="Page-1">
        <mxGraphModel dx="767" dy="472" grid="1" gridSize="10" guides="1" tooltips="1" connect="1" arrows="1" fold="1" page="1" pageScale="1" pageWidth="850" pageHeight="1100" math="0" shadow="0">
            <root>
                <mxCell id="0"/>
                <mxCell id="1" parent="0"/>
                <mxCell id="2" value="" style="rounded=0;whiteSpace=wrap;html=1;" vertex="1" parent="1">
                    <mxGeometry x="200" y="50" width="320" height="390" as="geometry"/>
                </mxCell>
                <mxCell id="6" value="GAME" style="rounded=0;whiteSpace=wrap;html=1;" vertex="1" parent="1">
                    <mxGeometry x="210" y="90" width="300" height="310" as="geometry"/>
                </mxCell>
                <mxCell id="3" value="Memorie Game" style="rounded=0;whiteSpace=wrap;html=1;" vertex="1" parent="1">
                    <mxGeometry x="200" y="50" width="320" height="30" as="geometry"/>
                </mxCell>
                <mxCell id="4" value="Best Time" style="rounded=0;whiteSpace=wrap;html=1;" vertex="1" parent="1">
                    <mxGeometry x="410" y="100" width="90" height="20" as="geometry"/>
                </mxCell>
                <mxCell id="5" value="New Game" style="rounded=0;whiteSpace=wrap;html=1;" vertex="1" parent="1">
                    <mxGeometry x="220" y="100" width="180" height="20" as="geometry"/>
                </mxCell>
                <mxCell id="8" value="Footer" style="rounded=0;whiteSpace=wrap;html=1;" vertex="1" parent="1">
                    <mxGeometry x="200" y="410" width="320" height="30" as="geometry"/>
                </mxCell>
                <mxCell id="9" value="Cards BackSide" style="rounded=0;whiteSpace=wrap;html=1;" vertex="1" parent="1">
                    <mxGeometry x="220" y="160" width="210" height="230" as="geometry"/>
                </mxCell>
                <mxCell id="10" value="Pairs" style="rounded=0;whiteSpace=wrap;html=1;" vertex="1" parent="1">
                    <mxGeometry x="440" y="160" width="60" height="230" as="geometry"/>
                </mxCell>
                <mxCell id="11" value="" style="rounded=0;whiteSpace=wrap;html=1;" vertex="1" parent="1">
                    <mxGeometry x="560" y="90" width="240" height="350" as="geometry"/>
                </mxCell>
                <mxCell id="12" value="" style="rounded=0;whiteSpace=wrap;html=1;" vertex="1" parent="1">
                    <mxGeometry x="840" y="180" width="200" height="260" as="geometry"/>
                </mxCell>
                <mxCell id="13" value="JEUX MEMOIRE" style="rounded=0;whiteSpace=wrap;html=1;" vertex="1" parent="1">
                    <mxGeometry x="570" y="95" width="220" height="30" as="geometry"/>
                </mxCell>
                <mxCell id="15" value="" style="rounded=0;whiteSpace=wrap;html=1;" vertex="1" parent="1">
                    <mxGeometry x="570" y="130" width="220" height="270" as="geometry"/>
                </mxCell>
                <mxCell id="16" value="FOOTER" style="rounded=0;whiteSpace=wrap;html=1;" vertex="1" parent="1">
                    <mxGeometry x="560" y="410" width="240" height="30" as="geometry"/>
                </mxCell>
                <mxCell id="17" value="Cards" style="rounded=0;whiteSpace=wrap;html=1;" vertex="1" parent="1">
                    <mxGeometry x="580" y="260" width="200" height="130" as="geometry"/>
                </mxCell>
                <mxCell id="18" value="FOOTER" style="rounded=0;whiteSpace=wrap;html=1;" vertex="1" parent="1">
                    <mxGeometry x="840" y="420" width="200" height="20" as="geometry"/>
                </mxCell>
                <mxCell id="19" value="JEUX MEMOIRE" style="rounded=0;whiteSpace=wrap;html=1;" vertex="1" parent="1">
                    <mxGeometry x="840" y="180" width="200" height="30" as="geometry"/>
                </mxCell>
                <mxCell id="20" value="" style="rounded=0;whiteSpace=wrap;html=1;" vertex="1" parent="1">
                    <mxGeometry x="850" y="220" width="180" height="190" as="geometry"/>
                </mxCell>
                <mxCell id="23" value="CARDS" style="rounded=0;whiteSpace=wrap;html=1;" vertex="1" parent="1">
                    <mxGeometry x="860" y="270" width="160" height="100" as="geometry"/>
                </mxCell>
                <mxCell id="24" value="PAIRS" style="rounded=0;whiteSpace=wrap;html=1;" vertex="1" parent="1">
                    <mxGeometry x="860" y="230" width="160" height="30" as="geometry"/>
                </mxCell>
                <mxCell id="25" value="pairs" style="rounded=0;whiteSpace=wrap;html=1;" vertex="1" parent="1">
                    <mxGeometry x="580" y="215" width="200" height="40" as="geometry"/>
                </mxCell>
                <mxCell id="26" value="TIME" style="rounded=0;whiteSpace=wrap;html=1;" vertex="1" parent="1">
                    <mxGeometry x="580" y="180" width="100" height="30" as="geometry"/>
                </mxCell>
                <mxCell id="27" value="Best score" style="rounded=0;whiteSpace=wrap;html=1;" vertex="1" parent="1">
                    <mxGeometry x="690" y="180" width="90" height="30" as="geometry"/>
                </mxCell>
                <mxCell id="28" value="YOUR TIME" style="rounded=0;whiteSpace=wrap;html=1;" vertex="1" parent="1">
                    <mxGeometry x="220" y="130" width="280" height="20" as="geometry"/>
                </mxCell>
                <mxCell id="29" value="TIME" style="rounded=0;whiteSpace=wrap;html=1;" vertex="1" parent="1">
                    <mxGeometry x="860" y="380" width="50" height="20" as="geometry"/>
                </mxCell>
                <mxCell id="30" value="BEST TIME" style="rounded=0;whiteSpace=wrap;html=1;" vertex="1" parent="1">
                    <mxGeometry x="970" y="380" width="50" height="20" as="geometry"/>
                </mxCell>
                <mxCell id="14" value="NEW GAME" style="rounded=0;whiteSpace=wrap;html=1;" vertex="1" parent="1">
                    <mxGeometry x="580" y="140" width="200" height="30" as="geometry"/>
                </mxCell>
                <mxCell id="31" value="NEW GAME" style="rounded=0;whiteSpace=wrap;html=1;" vertex="1" parent="1">
                    <mxGeometry x="920" y="380" width="40" height="20" as="geometry"/>
                </mxCell>
            </root>
        </mxGraphModel>
    </diagram>
</mxfile>